<svg width="96" height="96" xmlns="http://www.w3.org/2000/svg" xmlns:xlink="http://www.w3.org/1999/xlink" xml:space="preserve" overflow="hidden"><defs><clipPath id="clip0"><rect x="775" y="183" width="96" height="96"/></clipPath></defs><g clip-path="url(#clip0)" transform="translate(-775 -183)"><path d="M786.622 238.337 795.178 241.899C795.352 241.975 795.54 242.015 795.731 242.017 796.665 242.017 797.357 240.953 797.36 239.346L797.371 233.156C797.374 231.246 796.403 229.292 795.201 228.791L786.645 225.229C786.47 225.153 786.282 225.113 786.092 225.111 785.157 225.111 784.466 226.175 784.463 227.782L784.452 233.972C784.449 235.882 785.42 237.836 786.622 238.337ZM786.452 233.877 791.085 229.244 792.971 230.029 786.993 236.008C786.638 235.389 786.451 234.689 786.452 233.975ZM795.37 233.152 795.37 233.215 790.712 237.874 788.766 237.064 794.782 231.047C795.168 231.681 795.372 232.41 795.371 233.152ZM795.327 239.795 792.709 238.705 795.365 236.048 795.36 239.342C795.361 239.494 795.35 239.645 795.327 239.795ZM786.496 227.333 789.089 228.413 786.457 231.045 786.463 227.786C786.462 227.634 786.473 227.483 786.496 227.333Z"/><path d="M811.794 248.818 820.35 252.38C820.525 252.456 820.713 252.495 820.903 252.498 821.838 252.498 822.529 251.433 822.532 249.827L822.543 243.637C822.547 241.727 821.575 239.772 820.373 239.272L811.818 235.71C811.643 235.634 811.455 235.594 811.264 235.592 810.33 235.592 809.638 236.656 809.635 238.263L809.624 244.453C809.621 246.363 810.593 248.318 811.794 248.818ZM811.635 238.266C811.635 238.115 811.646 237.964 811.668 237.814L819.594 241.114C820.241 241.789 820.584 242.7 820.543 243.634L820.532 249.824C820.533 249.975 820.522 250.127 820.499 250.276L812.574 246.976C811.926 246.301 811.583 245.391 811.624 244.456Z"/><path d="M865.819 226.092C863.57 223.714 860.099 222.949 857.059 224.161L828.492 235.532C828.458 235.508 828.422 235.486 828.384 235.467L795.136 221.623 796.09 218.024 807.546 213.276C808.236 212.99 809.027 213.317 809.313 214.006 809.381 214.171 809.417 214.347 809.416 214.525L809.416 215.209C809.431 215.791 809.07 216.317 808.521 216.512 807.119 216.947 806.164 218.245 806.166 219.713L806.166 220.683C806.151 221.412 806.365 222.127 806.778 222.728 807.671 223.984 809.303 224.472 810.739 223.912L811.708 223.533C816.106 221.813 819 217.574 819 212.851L819 210.842C819.036 208.712 818.252 206.65 816.81 205.083 814.559 202.712 811.09 201.951 808.053 203.163L778.633 215.098C778.582 215.119 778.533 215.143 778.486 215.172 778.208 215.357 778.041 215.668 778.04 216.002L778 238.486C777.999 238.891 778.242 239.255 778.615 239.411L780.991 240.4 782.452 243.34C782.559 243.556 782.74 243.725 782.963 243.818L795.75 249.142C797.775 249.987 799.733 249.199 800.859 247.091L802.605 243.823C802.686 243.67 802.825 243.516 802.958 243.501 803.254 243.521 803.884 243.992 804.315 245.168L806.046 249.883C807.023 252.543 808.622 254.501 810.433 255.255L823.22 260.579C823.62 260.746 824.083 260.636 824.364 260.306L825.662 258.787 827.864 258.999C827.884 259.001 827.903 258.992 827.923 258.992 827.949 258.995 827.974 259.004 828 259.004 828.082 258.998 828.162 258.982 828.24 258.957 828.254 258.953 828.27 258.954 828.284 258.949 828.315 258.944 828.346 258.938 828.377 258.931L841.377 253.645C841.68 253.521 841.904 253.257 841.976 252.938L845.112 239.016 856.547 234.276C857.236 233.99 858.027 234.317 858.314 235.006 858.382 235.171 858.417 235.347 858.417 235.525L858.417 236.209C858.432 236.791 858.071 237.317 857.522 237.512 856.12 237.947 855.165 239.245 855.167 240.713L855.167 241.738C855.13 243.584 856.596 245.11 858.442 245.146 858.886 245.155 859.327 245.076 859.74 244.912L860.709 244.533C865.106 242.813 868 238.573 868 233.851L868 231.846C868.037 229.72 867.256 227.66 865.819 226.092ZM808.799 205.019C810.717 204.241 812.903 204.522 814.562 205.76 816.128 206.958 817.033 208.829 817 210.801L817 212.85C817 216.749 814.611 220.249 810.98 221.67L810.012 222.049C809.315 222.32 808.531 221.976 808.259 221.28 808.198 221.123 808.167 220.956 808.167 220.788L808.167 219.742C808.151 219.16 808.513 218.634 809.062 218.439 810.464 218.005 811.419 216.706 811.417 215.238L811.417 214.671C811.437 213.791 811.127 212.935 810.549 212.272 809.596 211.223 808.088 210.886 806.78 211.429L794.867 216.366C794.579 216.486 794.363 216.732 794.283 217.034L793.272 220.847 781.675 216.018C781.663 216.013 781.663 216.005 781.675 216ZM826.962 256.903 825.336 256.746C825.011 256.715 824.692 256.844 824.48 257.092L823.316 258.453 811.201 253.409C809.941 252.885 808.685 251.269 807.924 249.193L806.192 244.479C805.552 242.733 804.365 241.594 803.096 241.506 803.042 241.502 802.989 241.5 802.936 241.5 802.031 241.523 801.218 242.059 800.84 242.882L799.095 246.148C798.744 247.157 797.642 247.691 796.633 247.34 796.594 247.327 796.556 247.312 796.518 247.296L784.076 242.115 782.616 239.177C782.509 238.961 782.327 238.791 782.104 238.698L780.001 237.822 780.038 217.517C780.037 217.512 780.041 217.507 780.046 217.507 780.048 217.506 780.05 217.507 780.051 217.508L826.998 237.056ZM866 233.85C866 237.749 863.611 241.249 859.98 242.67L859.012 243.049C858.315 243.32 857.531 242.976 857.259 242.28 857.198 242.123 857.167 241.956 857.167 241.788L857.167 240.742C857.151 240.16 857.513 239.634 858.062 239.439 859.464 239.005 860.419 237.706 860.417 236.238L860.417 235.672C860.437 234.793 860.128 233.938 859.552 233.275 858.6 232.224 857.09 231.885 855.78 232.429L843.867 237.366C843.567 237.491 843.346 237.753 843.274 238.07L840.139 251.988 829 256.518 829 237.482 857.798 226.019C859.717 225.241 861.903 225.522 863.563 226.76 865.129 227.959 866.033 229.829 866 231.801Z"/></g></svg>