<svg width="96" height="96" xmlns="http://www.w3.org/2000/svg" xmlns:xlink="http://www.w3.org/1999/xlink" xml:space="preserve" overflow="hidden"><defs><clipPath id="clip0"><rect x="392" y="163" width="96" height="96"/></clipPath></defs><g clip-path="url(#clip0)" transform="translate(-392 -163)"><path d="M439.873 178 439.873 178C458.104 177.995 472.888 192.769 472.893 211 472.898 229.231 458.124 244.014 439.893 244.02 421.662 244.025 406.879 229.251 406.873 211.02 406.873 211.016 406.873 211.013 406.873 211.009 406.923 192.803 421.666 178.055 439.872 178M439.872 176C420.536 175.995 404.858 191.665 404.852 211 404.846 230.336 420.517 246.014 439.852 246.02 459.188 246.025 474.867 230.355 474.872 211.02 474.872 211.016 474.872 211.013 474.872 211.009 474.874 191.678 459.206 176.005 439.875 176Z"/><path d="M440 239C424.536 239 412 226.464 412 211 412 195.536 424.536 183 440 183 455.464 183 468 195.536 468 211 467.982 226.457 455.457 238.982 440 239ZM440 185C425.641 185 414 196.641 414 211 414 225.359 425.641 237 440 237 454.359 237 466 225.359 466 211 465.983 196.647 454.353 185.016 440 185Z"/><path d="M447.375 199.01C444.89 199.01 442.875 201.025 442.875 203.51 442.875 205.995 444.89 208.01 447.375 208.01 449.86 208.01 451.875 205.995 451.875 203.51 451.875 201.025 449.86 199.01 447.375 199.01ZM447.375 206.01C445.994 206.01 444.875 204.891 444.875 203.51 444.875 202.129 445.994 201.01 447.375 201.01 448.756 201.01 449.875 202.129 449.875 203.51 449.877 204.891 448.759 206.011 447.378 206.013 447.377 206.013 447.376 206.013 447.375 206.013Z"/><path d="M432.374 199.01C429.889 199.01 427.874 201.025 427.874 203.51 427.874 205.995 429.889 208.01 432.374 208.01 434.859 208.01 436.874 205.995 436.874 203.51 436.874 201.025 434.859 199.01 432.374 199.01ZM432.374 206.01C430.993 206.01 429.874 204.891 429.874 203.51 429.874 202.129 430.993 201.01 432.374 201.01 433.755 201.01 434.874 202.129 434.874 203.51 434.876 204.891 433.758 206.011 432.377 206.013 432.376 206.013 432.375 206.013 432.374 206.013Z"/><path d="M447.375 214.014C444.89 214.014 442.875 216.029 442.875 218.514 442.875 220.999 444.89 223.014 447.375 223.014 449.86 223.014 451.875 220.999 451.875 218.514 451.875 216.029 449.86 214.014 447.375 214.014ZM447.375 221.014C445.994 221.014 444.875 219.895 444.875 218.514 444.875 217.133 445.994 216.014 447.375 216.014 448.756 216.014 449.875 217.133 449.875 218.514 449.877 219.895 448.759 221.015 447.378 221.017 447.377 221.017 447.376 221.017 447.375 221.017Z"/><path d="M432.374 214.014C429.889 214.014 427.874 216.029 427.874 218.514 427.874 220.999 429.889 223.014 432.374 223.014 434.859 223.014 436.874 220.999 436.874 218.514 436.874 216.029 434.859 214.014 432.374 214.014ZM432.374 221.014C430.993 221.014 429.874 219.895 429.874 218.514 429.874 217.133 430.993 216.014 432.374 216.014 433.755 216.014 434.874 217.133 434.874 218.514 434.876 219.895 433.758 221.015 432.377 221.017 432.376 221.017 432.375 221.017 432.374 221.017Z"/></g></svg>