<svg width="96" height="96" xmlns="http://www.w3.org/2000/svg" xmlns:xlink="http://www.w3.org/1999/xlink" xml:space="preserve" overflow="hidden"><defs><clipPath id="clip0"><rect x="758" y="333" width="96" height="96"/></clipPath></defs><g clip-path="url(#clip0)" transform="translate(-758 -333)"><path d="M805.983 414.663C811.994 414.735 817.966 413.686 823.593 411.569L823.593 409.246C818.16 411.547 812.299 412.668 806.4 412.534 797.036 412.534 789.52 409.688 784.063 404.071 778.606 398.454 775.848 390.9 775.848 381.6 775.848 372.446 778.742 364.658 784.448 358.45 790.172 352.226 797.671 349.07 806.735 349.07 816.008 349.07 823.335 351.652 828.517 356.745 833.699 361.838 836.325 368.75 836.325 377.274 836.325 382.9 835.15 387.574 832.834 391.174 830.454 394.874 827.367 396.744 823.658 396.744 821.567 396.87 819.554 395.929 818.31 394.244 817.132 392.602 816.535 390.124 816.536 386.873L818.61 363.11 816.31 363.11C816.156 364.682 815.925 367.354 815.831 368.78L815.826 368.861 815.472 368.911 815.444 368.835C814.557 366.919 813.169 365.278 811.426 364.085 809.827 363.053 807.963 362.51 806.06 362.522 801.287 362.432 796.78 364.711 794.022 368.607 790.938 372.707 789.375 377.907 789.375 384.079 789.375 388.596 790.475 392.241 792.643 394.915 794.773 397.543 798.019 399.011 801.399 398.875 806.829 398.875 811.714 394.875 814.146 388.441L814.175 388.366 814.528 388.418 814.533 388.498C814.983 395.189 818.298 398.875 823.865 398.875 828.111 398.875 831.713 396.826 834.565 392.787 837.476 388.672 838.953 383.313 838.953 376.856 838.953 368.221 836.036 361 830.283 355.396 824.53 349.792 816.742 346.943 807.15 346.943 797.483 346.943 789.323 350.284 782.896 356.873 776.469 363.462 773.206 371.79 773.206 381.602 773.206 391.389 776.22 399.433 782.161 405.509 788.102 411.585 796.12 414.663 805.983 414.663ZM811.524 390.563C809.146 394.663 805.884 396.748 801.824 396.748 798.951 396.85 796.22 395.496 794.561 393.148 792.87 390.826 792.013 387.664 792.013 383.748 792.013 378.054 793.256 373.411 795.713 369.948 797.967 366.538 801.813 364.522 805.9 364.608 808.428 364.494 810.876 365.512 812.577 367.385 814.183 369.2 815 371.865 815 375.3 815 381.445 813.829 386.579 811.524 390.56Z"/></g></svg>