<svg width="96" height="96" xmlns="http://www.w3.org/2000/svg" xmlns:xlink="http://www.w3.org/1999/xlink" xml:space="preserve" overflow="hidden"><defs><clipPath id="clip0"><rect x="592" y="312" width="96" height="96"/></clipPath></defs><g clip-path="url(#clip0)" transform="translate(-592 -312)"><path d="M636.071 321.277C651.561 321.262 664.13 333.807 664.145 349.297 664.146 349.669 664.139 350.041 664.124 350.413L664.123 350.45 664.123 351.52 664.389 351.983 671.289 363.986 671.316 364.033 671.345 364.078C671.995 364.861 672.187 365.928 671.851 366.888 671.568 367.47 671.023 367.88 670.387 367.991L664.123 367.991 664.123 375.993C664.134 378.63 663.125 381.17 661.308 383.081 659.463 384.947 656.947 385.997 654.322 385.996L647.422 385.996 647.422 398 619.821 398 619.821 373.711 619.044 373.111C612.043 367.701 607.966 359.334 608.02 350.486L608.02 350.45 608.019 350.414C607.417 334.935 619.477 321.9 634.955 321.298 635.327 321.284 635.699 321.277 636.071 321.277M636.071 319.277C619.477 319.262 606.013 332.703 605.997 349.297 605.997 349.694 606.005 350.09 606.02 350.486 605.981 359.95 610.341 368.894 617.821 374.693L617.821 400 649.422 400 649.422 387.997 654.322 387.997C657.476 387.991 660.498 386.731 662.722 384.496 664.916 382.21 666.135 379.161 666.122 375.993L666.122 369.992 670.522 369.992C673.122 369.692 675.422 366.691 673.022 362.99L666.122 350.986 666.122 350.486C666.764 333.904 653.842 319.942 637.26 319.3 636.864 319.284 636.468 319.277 636.071 319.277Z"/><path d="M652.011 341.543C652.422 341.175 652.456 340.543 652.088 340.131 651.724 339.725 651.101 339.686 650.688 340.043 650.106 340.525 649.422 340.868 648.687 341.046 646.81 341.364 644.881 341.076 643.179 340.224 642.664 339.91 642.18 339.546 641.735 339.138 643.398 338.411 644.777 337.158 645.661 335.573 645.913 335.082 645.72 334.479 645.228 334.226 644.737 333.974 644.134 334.167 643.882 334.658 643.146 335.946 641.975 336.929 640.58 337.431 638.523 337.996 636.359 338.05 634.276 337.587 633.886 337.504 633.398 337.385 632.905 337.261 634.031 336.391 634.704 335.058 634.734 333.635 634.724 333.263 634.721 332.91 634.721 332.906 634.715 332.358 634.269 331.916 633.721 331.916L633.711 331.916C633.159 331.921 632.716 332.373 632.721 332.925 632.721 332.925 632.724 333.299 632.735 333.69 632.686 334.491 632.288 335.231 631.646 335.714 630.752 336.266 629.776 336.674 628.756 336.926 628.512 337 628.282 337.087 628.042 337.165 627.853 336.661 627.583 336.19 627.242 335.773 626.578 335.038 625.721 334.505 624.768 334.234 624.235 334.088 623.686 334.402 623.54 334.935 623.395 335.468 623.709 336.017 624.242 336.163 624.247 336.164 624.252 336.166 624.258 336.167 624.812 336.337 625.315 336.646 625.716 337.065 625.917 337.32 626.076 337.605 626.187 337.91 625.442 338.292 624.74 338.751 624.091 339.28 622.881 340.364 622.063 341.818 621.765 343.414 621.6 343.269 621.448 343.11 621.312 342.937 620.788 342.04 620.457 341.043 620.341 340.01 620.275 339.462 619.778 339.071 619.229 339.136 618.681 339.202 618.289 339.7 618.355 340.248 618.512 341.628 618.975 342.956 619.71 344.134 620.275 344.811 620.937 345.399 621.676 345.88 621.772 347.342 622.222 348.759 622.986 350.01 622.646 350.412 622.279 350.79 621.886 351.14 621.32 351.603 620.458 352.188 620.45 352.194 620 352.514 619.896 353.139 620.216 353.588 620.526 354.022 621.121 354.137 621.57 353.849 621.608 353.823 622.515 353.209 623.152 352.687 623.541 352.352 623.907 351.989 624.246 351.603 624.773 352.063 625.33 352.488 625.912 352.876 627.242 353.806 628.749 354.861 629.142 356.303 629.272 357.095 629.35 357.896 629.376 358.698L629.384 366.698 631.384 366.696 631.376 358.698C631.351 357.718 631.25 356.741 631.072 355.776 630.489 353.636 628.588 352.306 627.06 351.236 626.43 350.838 625.846 350.371 625.32 349.843 624.841 349.277 624.456 348.637 624.18 347.948 624.776 347.754 625.384 347.601 626.001 347.491 626.65 347.447 627.301 347.449 627.95 347.497 628.501 347.534 628.977 347.117 629.014 346.566 629.051 346.015 628.634 345.539 628.083 345.502 627.302 345.444 626.518 345.447 625.738 345.508 625.047 345.624 624.365 345.789 623.698 346.004 623.647 345.571 623.624 345.135 623.63 344.698 623.652 343.197 624.302 341.773 625.422 340.773 626.159 340.194 626.968 339.714 627.828 339.344 628.313 339.154 628.826 338.996 629.344 338.837 629.601 338.758 629.86 338.677 630.119 338.593 630.361 338.66 631.418 338.949 632.482 339.216 633.241 340.167 633.713 341.315 633.843 342.525 633.842 343.805 633.479 345.057 632.797 346.139 632.521 346.529 632.208 346.892 631.864 347.222 631.449 347.587 631.408 348.219 631.772 348.634 632.137 349.048 632.769 349.089 633.184 348.725 633.188 348.721 633.193 348.717 633.198 348.712 633.653 348.285 634.064 347.812 634.424 347.302 634.555 347.114 634.675 346.917 634.784 346.715 635.744 346.578 636.695 346.386 637.633 346.139 638.318 345.911 638.973 345.604 639.587 345.226 640.05 344.926 640.183 344.306 639.882 343.843 639.586 343.387 638.98 343.25 638.518 343.536 638.051 343.821 637.555 344.054 637.037 344.23 636.563 344.361 636.083 344.468 635.599 344.549 635.758 343.887 635.84 343.208 635.843 342.526 635.812 341.562 635.568 340.617 635.13 339.757 635.84 339.851 636.556 339.899 637.272 339.9 637.998 339.899 638.723 339.842 639.441 339.732 640.274 340.583 641.203 341.336 642.209 341.974 642.818 342.296 643.463 342.548 644.129 342.724 644.135 342.727 644.138 342.732 644.144 342.735 645.501 343.357 646.76 344.175 647.88 345.163 648.718 346.103 649.225 347.293 649.323 348.549 649.323 349.099 649.767 349.545 650.317 349.549L650.323 349.549C650.873 349.549 651.319 349.105 651.323 348.556 651.233 346.812 650.55 345.151 649.387 343.848 649.136 343.569 648.86 343.312 648.563 343.082 648.736 343.058 648.913 343.041 649.079 343.008 650.158 342.758 651.163 342.257 652.011 341.543Z"/><path d="M656.732 339.246C656.59 335.111 653.251 331.802 649.114 331.696 648.194 329.67 646.448 328.137 644.32 327.487 642.237 326.851 639.985 327.085 638.078 328.135 636.556 327 634.677 326.449 632.783 326.584 630.857 326.758 629.053 327.601 627.685 328.968 627.273 328.908 626.858 328.878 626.442 328.878 623.262 328.848 620.38 330.746 619.151 333.68 615.76 334.606 613.4 337.678 613.379 341.194 613.381 341.826 613.463 342.456 613.623 343.067 611.882 345.609 611.811 348.941 613.442 351.555 613.448 351.769 613.472 351.982 613.514 352.192 614.498 357.045 618.929 359.242 620.571 359.684 620.582 359.687 620.675 359.708 620.686 359.71 623.425 360.293 623.834 364.339 623.834 366.699L625.834 366.699C625.834 359.792 622.87 358.13 621.073 357.749 620.092 357.484 616.266 355.7 615.473 351.789 615.443 351.602 615.43 351.413 615.436 351.224L615.43 350.925 615.26 350.679C613.846 348.605 613.945 345.853 615.505 343.887L615.845 343.462 615.673 342.946C615.482 342.382 615.383 341.79 615.38 341.194 615.401 338.421 617.369 336.046 620.09 335.511L620.651 335.399 620.839 334.858C621.65 332.46 623.91 330.854 626.442 330.877 626.91 330.878 627.376 330.927 627.833 331.026L628.426 331.158 628.816 330.693C629.863 329.48 631.34 328.721 632.936 328.578 634.541 328.464 636.123 329.014 637.312 330.098L637.895 330.632 638.549 330.189C640.067 329.156 641.971 328.865 643.727 329.399 645.492 329.941 646.893 331.29 647.502 333.033L647.74 333.693 648.845 333.693C652.067 333.663 654.704 336.249 654.738 339.471L654.738 340.407 655.256 340.692C657.214 341.772 658.361 343.898 658.187 346.128 657.875 349.252 655.2 351.603 652.062 351.51L643.158 351.51C638.819 351.527 635.288 355.007 635.208 359.346L635.208 366.698 637.208 366.698 637.208 359.361C637.273 356.118 639.915 353.521 643.158 353.51L652.062 353.51C656.255 353.603 659.803 350.433 660.183 346.256 660.394 343.466 659.073 340.781 656.732 339.246Z"/></g></svg>