<svg width="96" height="96" xmlns="http://www.w3.org/2000/svg" xmlns:xlink="http://www.w3.org/1999/xlink" xml:space="preserve" overflow="hidden"><defs><clipPath id="clip0"><rect x="355" y="362" width="96" height="96"/></clipPath></defs><g clip-path="url(#clip0)" transform="translate(-355 -362)"><path d="M384.006 444.721 384.006 434.134C384.006 433.582 383.558 433.134 383.006 433.134L383.006 433.134C382.454 433.134 382.006 433.582 382.006 434.134L382.006 445.134C382.008 445.397 382.112 445.648 382.298 445.834L383.127 446.665C383.688 447.229 384.003 447.994 384 448.79L384 449.134 382.04 449.134C381.554 449.125 381.128 449.459 381.022 449.934 380.911 450.475 381.261 451.003 381.802 451.114 381.868 451.127 381.935 451.134 382.003 451.134L385.003 451.134C385.555 451.134 386.003 450.686 386.003 450.134L386.003 448.792C386.003 447.467 385.477 446.195 384.541 445.257Z"/><path d="M447.725 391.627 438.732 382.635 447.259 370.235C447.733 369.556 447.567 368.621 446.887 368.146 446.34 367.764 445.605 367.79 445.086 368.21L433.871 377.12C433.862 377.128 433.854 377.12 433.854 377.113L433.854 375.7C433.907 374.892 433.297 374.193 432.489 374.136 432.462 374.136 432.374 374.136 432.345 374.136 430.276 374.171 428.488 375.592 427.987 377.6 427.986 377.605 427.982 377.608 427.977 377.607 427.976 377.607 427.975 377.607 427.975 377.607 423.999 376.077 419.758 377.617 416.839 381.796L416.277 382.652C415.6 383.685 414.947 384.68 414.301 385.628 413.379 386.594 412.057 387.069 410.732 386.913 410.284 386.859 409.856 387.111 409.686 387.529 409.578 387.818 409.6 388.139 409.747 388.41 410.058 389.035 410.512 389.578 411.073 389.994 411.077 389.998 411.078 390.004 411.074 390.008 411.074 390.008 411.073 390.009 411.073 390.009 410.92 390.194 410.773 390.373 410.62 390.543 409.288 391.921 407.442 392.679 405.526 392.636 405.148 392.61 404.793 392.815 404.626 393.155 404.461 393.521 404.501 393.945 404.731 394.274 405.639 395.497 406.837 396.475 408.217 397.12 408.228 397.125 408.228 397.133 408.217 397.138 406.841 397.753 405.358 398.092 403.852 398.138L387.862 398.138C385.41 398.104 383.002 398.8 380.947 400.138L374.1 400.138C368.176 400.138 363.655 403.898 363.351 409.075 363.264 410.452 363.207 411.575 363.157 412.526 363.088 413.864 363.038 414.838 362.95 415.726 362.472 417.767 359.76 418.576 359.735 418.584 359.279 418.713 358.976 419.145 359.01 419.618 359.045 419.966 359.25 420.274 359.558 420.441 360.075 420.745 360.635 420.967 361.22 421.1 361.224 421.103 361.225 421.11 361.222 421.114 361.221 421.115 361.221 421.115 361.22 421.116 360.197 422.33 359.014 423.401 357.705 424.3 357.244 424.604 357.117 425.224 357.421 425.685 357.56 425.896 357.773 426.046 358.018 426.106 358.124 426.133 368.408 428.533 372.318 419.555 372.942 419.536 373.555 419.38 374.112 419.097 374.437 418.943 374.655 418.627 374.684 418.268 374.713 417.883 374.509 417.519 374.166 417.342 374.158 417.336 373.313 416.73 373.651 414.342 374 411.885 375.169 410.933 376 410.564L376 424.17 373.922 424.21C371.75 424.267 370.014 426.037 369.999 428.21L369.999 448.134C370.013 448.396 370.117 448.646 370.292 448.841L372.292 450.841C372.487 451.016 372.737 451.12 372.999 451.134L378.999 451.134C379.551 451.134 379.999 450.686 379.999 450.134L379.999 448.79C379.928 447.481 379.413 446.235 378.538 445.258L378.002 444.721 378.002 433.134 378.348 433.134C379.657 433.063 380.903 432.548 381.88 431.673L388.316 425.252C388.821 425.477 389.332 425.684 389.842 425.868 390.584 426.138 391.34 426.367 392.107 426.555 393.71 426.951 395.355 427.152 397.007 427.155L411.007 427.155 411.007 448.134C411.021 448.396 411.125 448.646 411.3 448.841L413.3 450.841C413.496 451.016 413.746 451.12 414.008 451.134L420.008 451.134C420.56 451.134 421.008 450.686 421.008 450.134L421.008 448.79C420.937 447.481 420.422 446.235 419.547 445.258L419.011 444.721 419.011 425.99C419.459 425.897 419.883 425.778 420.289 425.66 421.28 425.344 422.203 424.845 423.011 424.189L423.011 445.134C423.025 445.396 423.128 445.645 423.303 445.84L424.131 446.67C424.653 447.258 424.96 448.006 425 448.791L425 449.134 423.04 449.134C422.554 449.125 422.128 449.459 422.022 449.934 421.911 450.475 422.261 451.003 422.802 451.114 422.868 451.127 422.935 451.134 423.003 451.134L426.003 451.134C426.555 451.134 427.003 450.686 427.003 450.134L427.003 448.792C426.932 447.482 426.416 446.235 425.541 445.257L425.006 444.721 425.006 422.2 425.674 421.3C427.105 419.188 427.862 416.691 427.845 414.14L427.845 413.64C427.845 403.02 430.472 396.874 432.485 396.201L433.31 397.048C434.615 398.351 436.373 399.1 438.217 399.14L440.4 399.14C442.377 401.021 445.494 400.98 447.42 399.047L447.744 398.723C449.608 396.722 449.6 393.618 447.725 391.627ZM446.311 397.327 445.973 397.666C444.793 398.829 442.893 398.814 441.73 397.634 441.728 397.631 441.726 397.629 441.724 397.627L441.524 397.427C441.336 397.239 441.082 397.134 440.817 397.134L438.243 397.134C436.923 397.103 435.667 396.566 434.732 395.634L433.554 394.425C433.37 394.254 433.132 394.151 432.881 394.133 428.74 394.087 425.845 402.119 425.845 413.633L425.845 414.139C425.864 416.275 425.236 418.366 424.045 420.139L423.231 421.239C422.3 422.361 421.094 423.222 419.731 423.739 419.144 423.924 418.542 424.058 417.931 424.139 417.417 424.195 417.023 424.622 417.009 425.139L417.009 445.134C417.023 445.396 417.126 445.646 417.301 445.841L418.129 446.67C418.652 447.257 418.959 448.005 419 448.79L419 449.134 414.417 449.134 413.005 447.72 413.005 426.152C413.005 425.6 412.557 425.152 412.005 425.152L397.005 425.152C395.515 425.15 394.03 424.969 392.583 424.613 391.886 424.441 391.199 424.233 390.525 423.988 389.847 423.742 389.183 423.462 388.534 423.148 388.149 422.988 387.706 423.066 387.398 423.348L380.468 430.263C379.882 430.787 379.134 431.096 378.349 431.139L377.038 431.139C376.889 431.137 376.74 431.166 376.603 431.225 376.239 431.384 376.004 431.742 376.003 432.139L376.003 445.139C376.017 445.401 376.12 445.651 376.295 445.846L377.123 446.675C377.647 447.26 377.956 448.006 378 448.79L378 449.134 373.417 449.134 372.005 447.72 372.005 428.21C372.013 427.124 372.88 426.239 373.966 426.21L377.025 426.151C377.568 426.137 378.002 425.694 378.006 425.151L378.006 410.134C378.006 408.531 378.391 406.952 379.128 405.528 379.38 405.053 379.226 404.465 378.773 404.175 378.299 403.891 377.685 404.044 377.401 404.518 377.391 404.534 377.382 404.551 377.373 404.568 376.743 405.775 376.322 407.079 376.129 408.427 374.542 408.785 372.219 410.245 371.672 414.065 371.454 415.227 371.548 416.427 371.945 417.541L371.933 417.553C371.433 417.412 370.908 417.677 370.725 418.164 368.609 423.8 363.712 424.541 360.8 424.444 360.794 424.443 360.791 424.439 360.791 424.433 360.791 424.431 360.792 424.429 360.794 424.427 362.041 423.378 363.091 422.115 363.894 420.696 364.022 420.456 364.05 420.175 363.971 419.914 363.869 419.592 363.611 419.344 363.286 419.253 363.14 419.214 362.988 419.204 362.838 419.224 362.833 419.226 362.828 419.224 362.826 419.219 362.824 419.214 362.826 419.209 362.831 419.207 363.887 418.458 364.633 417.35 364.931 416.09L364.947 415.99C365.047 415.034 365.095 414.026 365.168 412.63 365.217 411.683 365.274 410.569 365.36 409.197 365.604 405.042 369.203 402.139 374.113 402.139L381.264 402.139C381.469 402.128 381.668 402.065 381.842 401.955 383.617 400.75 385.719 400.116 387.865 400.139L403.881 400.139C406.523 400.065 409.086 399.223 411.258 397.716 411.55 397.522 411.724 397.194 411.723 396.844 411.711 396.367 411.364 395.965 410.894 395.884 409.709 395.681 408.594 395.184 407.651 394.439 407.642 394.432 407.643 394.424 407.651 394.421 409.345 394.032 410.889 393.155 412.091 391.899 412.534 391.399 412.966 390.859 413.399 390.299 413.738 389.863 413.659 389.235 413.223 388.896 413.194 388.874 413.165 388.854 413.135 388.835 413.065 388.789 412.99 388.753 412.91 388.729 412.905 388.727 412.902 388.722 412.904 388.716 412.905 388.713 412.907 388.711 412.91 388.71 414.029 388.398 415.038 387.779 415.824 386.923L415.904 386.823C416.571 385.846 417.245 384.818 417.946 383.75L418.49 382.919C421.137 379.131 424.916 378.013 428.35 380.002 428.791 380.258 429.353 380.141 429.656 379.731 429.789 379.549 429.86 379.328 429.856 379.102L429.856 378.647C429.876 377.465 430.703 376.451 431.856 376.191L431.856 379.177C431.851 379.416 431.93 379.65 432.079 379.837 432.425 380.263 433.05 380.331 433.479 379.989L443.67 371.89C443.699 371.867 443.705 371.873 443.684 371.903L436.612 382.188C436.355 382.589 436.404 383.113 436.729 383.461L446.288 393.018C447.421 394.228 447.431 396.105 446.311 397.327Z"/><path d="M436.567 385.569C437.15 386.153 437.147 387.102 436.56 387.689 435.972 388.276 435.023 388.28 434.44 387.696 433.856 387.113 433.859 386.164 434.447 385.576 435.034 384.989 435.983 384.986 436.567 385.569Z"/></g></svg>