<svg width="96" height="96" xmlns="http://www.w3.org/2000/svg" xmlns:xlink="http://www.w3.org/1999/xlink" xml:space="preserve" overflow="hidden"><defs><clipPath id="clip0"><rect x="592" y="11" width="96" height="96"/></clipPath></defs><g clip-path="url(#clip0)" transform="translate(-592 -11)"><path d="M663.005 89 604.005 89C601.796 89 600.005 87.2091 600.005 85 600.005 82.7909 601.796 81 604.005 81L612.005 81 612.005 39 661.405 39 663.405 37 612.005 37 612.005 27 604.005 27C600.693 27.0039 598.009 29.6879 598.005 33L598.005 85C598.009 88.3121 600.693 90.9961 604.005 91L665.005 91 665.005 56.482 663.005 58.482ZM600.005 33C600.005 30.7909 601.796 29 604.005 29L610.005 29 610.005 79 604.005 79C602.528 78.9991 601.103 79.5448 600.005 80.532Z"/><path d="M685.414 29.02 681.914 25.52C681.154 24.7438 679.909 24.7306 679.132 25.4906 679.122 25.5003 679.113 25.5101 679.103 25.52L653.572 51.1 653.436 51.418 651.261 58.139 637.838 45.348 618.614 63.578 623.044 68.008 623.044 81 636.044 81 636.044 69.542 639.544 69.542 639.544 81 652.544 81 652.544 65.942 637.794 51.93 623.435 65.571 621.48 63.616 637.834 48.107 650.7 60.367 659.515 57.497 659.925 57.323 685.365 31.782C686.14 31.1011 686.216 29.9208 685.535 29.1457 685.497 29.102 685.456 29.06 685.414 29.02ZM625.044 66.8 637.794 54.688 650.544 66.8 650.544 79 641.544 79 641.544 67.542 634.044 67.542 634.044 79 625.044 79ZM659.2 55.221 658.848 55.573 654.671 56.951 653.992 56.272 655.363 52.138 655.772 51.728C656.175 51.4827 656.637 51.352 657.109 51.35 657.779 51.3501 658.42 51.6189 658.89 52.096 659.742 52.9224 659.873 54.2433 659.2 55.221ZM679.142 35.275 661.517 52.9C661.134 51.1684 659.774 49.8204 658.039 49.452L675.683 31.766 676.017 31.431 679.489 34.9ZM680.866 33.452 677.431 30.017 680.508 26.942 683.941 30.377Z"/></g></svg>